<svg xmlns="http://www.w3.org/2000/svg" version="1.1" xmlns:xlink="http://www.w3.org/1999/xlink" xmlns:svgjs="http://svgjs.com/svgjs" width="1440" height="560" preserveAspectRatio="none" viewBox="0 0 1440 560"><g mask="url(&quot;#SvgjsMask1056&quot;)" fill="none"><rect width="1440" height="560" x="0" y="0" fill="url(#SvgjsLinearGradient1057)"></rect><path d="M0 0L147.01 0L0 186.86z" fill="rgba(255, 255, 255, .1)"></path><path d="M0 186.86L147.01 0L459.63 0L0 309.40000000000003z" fill="rgba(255, 255, 255, .075)"></path><path d="M0 309.40000000000003L459.63 0L805.26 0L0 321.55z" fill="rgba(255, 255, 255, .05)"></path><path d="M0 321.55L805.26 0L1193.53 0L0 372.73z" fill="rgba(255, 255, 255, .025)"></path><path d="M1440 560L773.58 560L1440 285z" fill="rgba(0, 0, 0, .1)"></path><path d="M1440 285L773.58 560L508.21000000000004 560L1440 198.39z" fill="rgba(0, 0, 0, .075)"></path><path d="M1440 198.39L508.21000000000004 560L214.56000000000006 560L1440 119.39999999999999z" fill="rgba(0, 0, 0, .05)"></path><path d="M1440 119.39999999999998L214.55999999999995 560L175.84999999999994 560L1440 46.329999999999984z" fill="rgba(0, 0, 0, .025)"></path></g><defs><mask id="SvgjsMask1056"><rect width="1440" height="560" fill="#ffffff"></rect></mask><linearGradient x1="50%" y1="100%" x2="50%" y2="0%" gradientUnits="userSpaceOnUse" id="SvgjsLinearGradient1057"><stop stop-color="#0e2a47" offset="0"></stop><stop stop-color="rgba(164, 176, 204, 1)" offset="1"></stop></linearGradient></defs></svg>